<svg id="Component_4" data-name="Component 4" xmlns="http://www.w3.org/2000/svg" width="57.334" height="113.951" viewBox="0 0 57.334 113.951">
  <g id="Group_537" data-name="Group 537">
    <path id="Path_3062" data-name="Path 3062" d="M466.964,546.914a.418.418,0,0,0,.3-.725l-.029-.114.011-.027a1.118,1.118,0,0,1,2.065.008,9.99,9.99,0,0,1,.874,2.5,3.332,3.332,0,0,1-.058,1.142,13.348,13.348,0,0,0,1.208-5.53,12.884,12.884,0,0,0-.079-1.434q-.066-.585-.183-1.162a13.488,13.488,0,0,0-2.663-5.709,3.579,3.579,0,0,1-1.486-1.547,2.74,2.74,0,0,1-.248-.747,3.383,3.383,0,0,0,.218-1.164c.1-.154.281-.23.391-.38.548-.745,1.3-.615,1.7.4.842.426.85,1.133.333,1.812-.329.432-.374,1.017-.662,1.48l.09.113a13.56,13.56,0,0,1,1.411,2.242,5.651,5.651,0,0,1,.335-2.618,9.441,9.441,0,0,1,1.453-2.1,1.152,1.152,0,0,1,2.054.568l0,.03q-.118.067-.231.142a.568.568,0,0,0,.228,1.032l.012,0a5.656,5.656,0,0,1-.148.844c.68,2.637-.788,3.6-2.884,3.641-.046.024-.091.048-.138.07a13.876,13.876,0,0,1,.743,3.505,13.164,13.164,0,0,1-.01,2.119l0-.025a3.47,3.47,0,0,1,1.18-2,25.96,25.96,0,0,1,3.172-1.626.649.649,0,0,1,.994.633l0,.026a3.792,3.792,0,0,0-.426.206q-.118.067-.231.142a.568.568,0,0,0,.228,1.032l.012,0,.024,0a5.65,5.65,0,0,1-1.036,1.626c-.425,2.3-2.251,2.521-4.2,1.85h0a13.861,13.861,0,0,1-.927,2.713h-3.31c-.012-.037-.023-.075-.033-.112a3.753,3.753,0,0,0,.916-.055l-.737-.909-.015-.018-.375-.463h0a5.538,5.538,0,0,1,.161-1.407h0Z" transform="translate(-422.75 -436.013)" fill="#f2f2f2"/>
    <path id="Path_3063" data-name="Path 3063" d="M33.3,546.585a.409.409,0,0,1-.3-.709l.029-.111-.011-.027a1.128,1.128,0,0,0-2.065.008,9.635,9.635,0,0,0-.874,2.442,3.191,3.191,0,0,0,.058,1.118,12.827,12.827,0,0,1-1.208-5.412,12.346,12.346,0,0,1,.079-1.4q.066-.573.183-1.138a13.074,13.074,0,0,1,2.663-5.586,3.538,3.538,0,0,0,1.486-1.514,2.642,2.642,0,0,0,.248-.731,3.249,3.249,0,0,1-.218-1.139c-.1-.15-.281-.225-.391-.371-.548-.729-1.3-.6-1.7.389-.842.417-.85,1.108-.333,1.773.329.423.374,1,.662,1.448l-.09.111a13.237,13.237,0,0,0-1.411,2.194,5.421,5.421,0,0,0-.335-2.562,9.238,9.238,0,0,0-1.453-2.058,1.159,1.159,0,0,0-2.054.556l0,.029q.118.065.231.139a.552.552,0,0,1-.228,1.01l-.012,0a5.428,5.428,0,0,0,.148.826c-.68,2.581.788,3.521,2.884,3.563l.138.069a13.323,13.323,0,0,0-.743,3.43A12.606,12.606,0,0,0,28.69,545l0-.024a3.382,3.382,0,0,0-1.18-1.96,26.183,26.183,0,0,0-3.172-1.591.648.648,0,0,0-.994.62l0,.026a3.831,3.831,0,0,1,.426.2q.118.065.231.139a.552.552,0,0,1-.228,1.01l-.012,0-.024,0a5.514,5.514,0,0,0,1.036,1.592c.425,2.253,2.251,2.467,4.2,1.811h0a13.366,13.366,0,0,0,.927,2.655h3.31c.012-.036.023-.073.033-.109a3.83,3.83,0,0,1-.916-.054l.737-.89.015-.017.375-.453h0a5.31,5.31,0,0,0-.161-1.377h0Z" transform="translate(-19.047 -436.013)" fill="#f2f2f2"/>
    <path id="Path_3064" data-name="Path 3064" d="M0,631.5c0,.122.056.219.126.219H57.207c.07,0,.126-.1.126-.219s-.056-.219-.126-.219H.126C.056,631.277,0,631.375,0,631.5Z" transform="translate(0 -517.765)" fill="#ccc"/>
    <g id="Group_536" data-name="Group 536" transform="translate(11.572)">
      <g id="Group_531" data-name="Group 531" transform="translate(16.902 102.174)">
        <path id="Path_3065" data-name="Path 3065" d="M387.083,575.329l1.95-.017.863-7.717-2.877.024Z" transform="translate(-386.197 -567.595)" fill="#a0616a"/>
        <path id="Path_3066" data-name="Path 3066" d="M389.3,606.993l-3.114-2.118-.012-1.4-.67.045-2.075.143-.509.034-.369,4.945,1.463-.013.249-1.386.679,1.379,3.876-.032a.875.875,0,0,0,.482-1.6Z" transform="translate(-382.547 -596.866)" fill="#2f2e41"/>
      </g>
      <g id="Group_532" data-name="Group 532" transform="translate(6.983 102.174)">
        <path id="Path_3067" data-name="Path 3067" d="M333.083,575.329l1.95-.017.863-7.717-2.877.024Z" transform="translate(-332.197 -567.595)" fill="#a0616a"/>
        <path id="Path_3068" data-name="Path 3068" d="M335.3,606.993l-3.114-2.118-.012-1.4-.67.045-2.075.143-.509.034-.369,4.945,1.462-.013.249-1.386.678,1.379,3.876-.032a.875.875,0,0,0,.482-1.6Z" transform="translate(-328.547 -596.866)" fill="#2f2e41"/>
      </g>
      <path id="Path_3069" data-name="Path 3069" d="M415.811,47.39a2.03,2.03,0,0,0,.7,2.777,2.005,2.005,0,0,0,1.4.248l0,0,2.5,2.752,2.943-1.069-3.86-4.228-.014.014a2.017,2.017,0,0,0-3.683-.5Z" transform="translate(-392.567 -40.238)" fill="#ffb6b6"/>
      <path id="Path_3070" data-name="Path 3070" d="M344.753,270.126l-7.9.25-7.486,1.668s.749.918-1.747,3.42c0,0-3.327,5.84-1,11.512l.653,14.837s.557,1.175.055,1.251-.466.956.067,1.529a.822.822,0,0,1,.049,1.121c1.027.686.269,2.536.174,3.954,0,0-2.91,16-.687,21.087l2.939.184,4.973-21.086,2.424-22.709,1.164,22.358s-4.455,15.346-1.642,21.438l3.183-.184,5.446-21.254s.917-9.653,1.518-18c.044-.61-.209-1.988.126-1.806s-.51-1.269.1-1.465-.414-1.706.1-1.6-.327-12.012-.408-13.153c-.333-4.672-2.094-3.356-2.094-3.356Z" transform="translate(-319.315 -222.612)" fill="#2f2e41"/>
      <path id="Path_3071" data-name="Path 3071" d="M391.993,85.538a3.28,3.28,0,0,1-.429-6.529l11.062-1.515-5.683-8.013,3.2-1.627,8.291,9.547a2.556,2.556,0,0,1-1.256,4.142l-14.317,3.879a3.308,3.308,0,0,1-.865.116Z" transform="translate(-370.697 -57.741)" fill="#e6e6e6"/>
      <path id="Path_3072" data-name="Path 3072" d="M352.771,134.819l-20.021.921c-.55-.837-.4-2.1.369-3.674,2.908-5.954.7-17.217-.786-23.082a2.766,2.766,0,0,1,2.386-3.45l1.888-.189L338.353,100h6.111l2.535,2.9,4.3,2.622c-.783,8.091-4.12,19.515.634,25.245a3.971,3.971,0,0,1,.836,4.045Z" transform="translate(-324.583 -83.967)" fill="#e6e6e6"/>
      <g id="Group_533" data-name="Group 533" transform="translate(7.68)">
        <path id="Path_3073" data-name="Path 3073" d="M346.355,40.448a12.982,12.982,0,0,1-1.43.454,2.278,2.278,0,0,1-1.621-.012l-.062-.025a6.589,6.589,0,0,1-4-5.975c0-.044,0-.09,0-.135a6.43,6.43,0,0,1,.031-.648,6.569,6.569,0,0,1,.14-.872H339.4a2.4,2.4,0,0,1-.63-1.924,3.181,3.181,0,0,1,1.432-2.378,5.006,5.006,0,0,1,2.082-.737,5.262,5.262,0,0,1,.6-.035h1.879a8.1,8.1,0,0,1,1.18-.187h0c3.782-.315,6.765,2.2,6.487,5.26l-.007.01c-.08.131-.151.256-.214.375s-.112.218-.157.319c-.345.782,1.3,12.916.707,13.1-.335.1-1.685-8.925-1.442-7.208.3,2.154-3.226-.029-4.968.617Z" transform="translate(-337.584 -25.186)" fill="#2f2e41"/>
        <ellipse id="Ellipse_32" data-name="Ellipse 32" cx="4.449" cy="4.462" rx="4.449" ry="4.462" transform="translate(4.372 5.498)" fill="#ffb6b6"/>
        <path id="Path_3074" data-name="Path 3074" d="M350.273,37.458c-.074.039-.147.075-.221.112s-.155.074-.233.11c-1.489.677-2.7.752-3.437-.221a4.142,4.142,0,0,0-.339-1.486,2.393,2.393,0,0,1-.393,1.486h-1.482c-1.526,1.016-2.309,1.949-1.25,5.284.069.219.542,8,.677,8.6-2.31-.889-4.3-10.324-4.353-12.81,0-.04,0-.083,0-.124a5.457,5.457,0,0,1,.031-.6,5.594,5.594,0,0,1,.14-.8H339.4a2.1,2.1,0,0,1-.63-1.769,5.093,5.093,0,0,1,1.414-1.271,9.008,9.008,0,0,1,1.548-.583l.038-.009c.163-.044.33-.085.5-.12a9.3,9.3,0,0,1,1.042-.158l.073,0a.779.779,0,0,1,.4.11h0a.787.787,0,0,1,.382.67h1.651c.061,0,.122,0,.182.005,2.3.092,4.146,1.078,4.265,3.344.005.079.007.155.007.234Z" transform="translate(-337.584 -29.385)" fill="#2f2e41"/>
        <ellipse id="Ellipse_33" data-name="Ellipse 33" cx="2.931" cy="2.939" rx="2.931" ry="2.939" transform="translate(0 2.373)" fill="#2f2e41"/>
        <path id="Path_3075" data-name="Path 3075" d="M344.531,16.908a2.9,2.9,0,0,1-3.547,2.15A2.94,2.94,0,0,1,338.84,15.5c.388-1.576,2.295-1.122,3.547-2.15C344.159,11.9,344.98,14.766,344.531,16.908Z" transform="translate(-337.576 -12.955)" fill="#2f2e41"/>
      </g>
      <path id="Path_3076" data-name="Path 3076" d="M360.724,210.122a2.016,2.016,0,0,0-3.594-.794h0l-3.7-.323-1.442,2.786,5.7.488v-.02a2.019,2.019,0,0,0,3.044-2.137Z" transform="translate(-340.696 -172.489)" fill="#ffb6b6"/>
      <path id="Path_3077" data-name="Path 3077" d="M293.6,146.448a3.079,3.079,0,0,1-2.769-4.41l6.045-12.655a3.264,3.264,0,0,1,5.613-.482h0a3.269,3.269,0,0,1,.078,3.681l-6.07,9.4,9.763.906-.855,3.491-11.785.071H293.6Z" transform="translate(-290.529 -106.415)" fill="#e6e6e6"/>
      <g id="Group_535" data-name="Group 535" transform="translate(18.309 6.289)">
        <g id="Group_534" data-name="Group 534" transform="translate(0.029)">
          <path id="Path_3078" data-name="Path 3078" d="M402.684,52.411a.051.051,0,0,1,0-.01c.007-.048.058-.057.075-.06.089-.016.587,0,.655.125.021.039.148.029.241.021a1.212,1.212,0,0,1,.191-.006,11.8,11.8,0,0,0,3.343-.064,1.953,1.953,0,0,0,1.419-2.422l-.41-1.473a1.947,1.947,0,0,0-2.446-1.34,14.913,14.913,0,0,0-3.309,1.828,1.612,1.612,0,0,1-.152.086,1.42,1.42,0,0,0-.145.082.055.055,0,0,1,0,.035c-.011.043-.053.05-.106.06-.033.006-.11.019-.123.041a.021.021,0,0,0,0,.014.066.066,0,0,1-.019.08c-.04.03-.078,0-.147-.043-.053-.036-.177-.12-.216-.094-.01.007-.057.055,0,.34a.242.242,0,0,1-.046.21.554.554,0,0,1-.382.133l-.7-.065a4.184,4.184,0,0,0-3.426,1.277l-.011.011-.669.173.511,1.989.688-.178.017.008c1.045.477,2.275.258,3.763-.67l.422-.263h.015c.278,0,.622.016.68.094a.072.072,0,0,1,.015.042.81.81,0,0,0,.262.04Z" transform="translate(-395.22 -47.095)" fill="#c93ade"/>
          <path id="Path_3079" data-name="Path 3079" d="M390.943,71.023a.148.148,0,0,0,.18.107l.965-.25a.149.149,0,0,0,.106-.181l-.572-2.224a.148.148,0,0,0-.18-.107l-.965.25a.149.149,0,0,0-.106.181Z" transform="translate(-390.366 -64.445)" fill="#3f3d56"/>
        </g>
        <ellipse id="Ellipse_34" data-name="Ellipse 34" cx="0.551" cy="0.553" rx="0.551" ry="0.553" transform="translate(0 4.967)" fill="#3f3d56"/>
      </g>
    </g>
  </g>
</svg>
