<svg id="Component_3" data-name="Component 3" xmlns="http://www.w3.org/2000/svg" width="125.335" height="117" viewBox="0 0 125.335 117">
  <g id="Group_527" data-name="Group 527">
    <path id="Path_3020" data-name="Path 3020" d="M824.261,567.633l-10.174-15.266s15.408,5.434,13.659,15.266Z" transform="translate(-710.075 -473.898)" fill="#e5e5e5"/>
    <path id="Path_3021" data-name="Path 3021" d="M319.048,504.095l-.386-.008a91.369,91.369,0,0,1,1.371-12.931c1.67-9.145,4.447-15.152,8.255-17.852l.222.319C319.616,479.931,319.053,503.854,319.048,504.095Z" transform="translate(-310.327 -410.258)" fill="#e5e5e5"/>
    <path id="Path_3022" data-name="Path 3022" d="M344.048,575.219l-.386-.008c.008-.432.25-10.615,4.218-13.43l.222.319C344.294,564.8,344.05,575.115,344.048,575.219Z" transform="translate(-330.499 -481.476)" fill="#e5e5e5"/>
    <ellipse id="Ellipse_11" data-name="Ellipse 11" cx="1.931" cy="1.951" rx="1.931" ry="1.951" transform="translate(18.449 59.499)" fill="#c93ade"/>
    <ellipse id="Ellipse_12" data-name="Ellipse 12" cx="1.931" cy="1.951" rx="1.931" ry="1.951" transform="translate(17.493 76.276)" fill="#c93ade"/>
    <path id="Path_3023" data-name="Path 3023" d="M330.291,464.431a8.743,8.743,0,0,1-.583,4.436,7.959,7.959,0,0,1-1.314-8.48A8.7,8.7,0,0,1,330.291,464.431Z" transform="translate(-317.642 -399.861)" fill="#e5e5e5"/>
    <path id="Path_3024" data-name="Path 3024" d="M355.2,498.721a8.5,8.5,0,0,1-4.426.193,8.589,8.589,0,0,1,3.612-2.592,8.495,8.495,0,0,1,4.426-.193A8.588,8.588,0,0,1,355.2,498.721Z" transform="translate(-336.233 -428.464)" fill="#e5e5e5"/>
    <path id="Path_3025" data-name="Path 3025" d="M361.1,578.258a5.955,5.955,0,0,1-3.1.135,5.449,5.449,0,0,1,5.634-1.952A6.014,6.014,0,0,1,361.1,578.258Z" transform="translate(-342.063 -493.143)" fill="#e5e5e5"/>
    <path id="Path_3026" data-name="Path 3026" d="M400.642,631.012H275.693a.2.2,0,0,1,0-.39H400.642a.2.2,0,0,1,0,.39Z" transform="translate(-275.5 -536.887)" fill="#cbcbcb"/>
    <path id="Path_3027" data-name="Path 3027" d="M333.78,503.2l-1.58,4.154-16.613-4.179,2.332-6.131Z" transform="translate(-254.641 -400.082)" fill="#ffb7b7"/>
    <path id="Path_3028" data-name="Path 3028" d="M671.212,672.688l-5.094,13.394-.168-.065a5.6,5.6,0,0,1-3.178-7.216h0l3.111-8.181Z" transform="translate(-587.684 -569.081)" fill="#2f2e41"/>
    <path id="Path_3029" data-name="Path 3029" d="M522.826,412.112l-7.24.685-.359,21.759a4.068,4.068,0,0,0,4.317,3.716l4.59-.319Z" transform="translate(-468.931 -361.003)" fill="#e5e5e5"/>
    <path id="Path_3030" data-name="Path 3030" d="M664.814,406.356l-4.954-.064-.293,25.855h0a7.93,7.93,0,0,0,5.918-2.369,8.1,8.1,0,0,0,2.314-5.991Z" transform="translate(-585.396 -356.318)" fill="#e5e5e5"/>
    <path id="Path_3031" data-name="Path 3031" d="M531.155,571.131a16.055,16.055,0,0,1-.51,2.216c-.25.71-.636,1.367-.865,2.084-.728,2.286.281,4.836,1.894,6.6a10.643,10.643,0,0,0,5.2,3.118,21,21,0,0,0,4.468.474c4.153.142,8.412.27,12.347-1.079a21.342,21.342,0,0,0,3.587-1.646,2.69,2.69,0,0,0,.931-.74,2.609,2.609,0,0,0,.336-1.519c-.009-1.778-.366-3.547-.281-5.324a21.323,21.323,0,0,0,.14-2.948,5.419,5.419,0,0,0-4.114-4.684,11.065,11.065,0,0,0-3.41,0,86.076,86.076,0,0,1-8.876.4c-3.028-.02-6.037-.486-9.05-.535-.891-.014-.873.263-1.157,1.134A21.4,21.4,0,0,0,531.155,571.131Z" transform="translate(-480.48 -486.118)" fill="#2f2e41"/>
    <path id="Path_3032" data-name="Path 3032" d="M441.626,577.377a8.875,8.875,0,0,0-2.492-.268,6.2,6.2,0,0,0-4.543,2.386,6.331,6.331,0,0,0-1.232,5.021,10.623,10.623,0,0,0,.988,2.726,9.1,9.1,0,0,0,2.677,3.575,10.383,10.383,0,0,0,2.363,1.136l6.444,2.452c.948.361,1.9.721,2.854,1.056a55.322,55.322,0,0,0,14.9,2.993,15.978,15.978,0,0,0,4.628-.237,1.5,1.5,0,0,0,.948-.517,1.65,1.65,0,0,0,.212-.706l.4-2.8a2.372,2.372,0,0,0-.034-1.182,2.251,2.251,0,0,0-1.071-1.02c-4.237-2.458-9.183-3.814-12.749-7.188-.839-.794-1.542-2.053-2.562-2.592-1.157-.612-2.519-.961-3.714-1.525A40.885,40.885,0,0,0,441.626,577.377Z" transform="translate(-402.791 -493.809)" fill="#2f2e41"/>
    <path id="Path_3033" data-name="Path 3033" d="M497.85,595.223c2.278.721,11.894,5.716,13.543,7.46-.221.08-7.717-4.163-7.942-4.231a45.011,45.011,0,0,1-6.042-2.151c-.391-.183-2.538-1.04-2.44-1.538C495.077,594.2,497.445,595.1,497.85,595.223Z" transform="translate(-452.581 -507.875)" opacity="0.1"/>
    <path id="Path_3034" data-name="Path 3034" d="M529.317,373.415l-6.133,4.7s-6.471.2-6.253,4.383,2.809,23.963,2.809,23.963l.562,6.807,10.659,3.068a34.537,34.537,0,0,0,17.668.383h0l-1.267-6.829s5.129-31.016,2.039-32.381a9.126,9.126,0,0,0-5.021-.975l-3.873-3.414Z" transform="translate(-470.302 -329.62)" fill="#e5e5e5"/>
    <path id="Path_3035" data-name="Path 3035" d="M570.764,265.821c0,6.106-5.589,5.183-12.484,5.183s-12.484.924-12.484-5.183,2.73-16.93,12.484-16.93C568.37,248.891,570.764,259.715,570.764,265.821Z" transform="translate(-493.596 -229.623)" fill="#2f2e41"/>
    <circle id="Ellipse_13" data-name="Ellipse 13" cx="8.443" cy="8.443" r="8.443" transform="translate(53.353 32.266) rotate(-45)" fill="#ffb7b7"/>
    <path id="Path_3036" data-name="Path 3036" d="M559.964,277.356h3.323l1.466-4.146.293,4.146h1.588l.855-2.419.171,2.419h11.8a8.938,8.938,0,0,0-8.893-8.983h-1.71a8.938,8.938,0,0,0-8.893,8.983Z" transform="translate(-505.028 -245.305)" fill="#2f2e41"/>
    <rect id="Rectangle_13" data-name="Rectangle 13" width="16.801" height="20.483" transform="translate(56.311 44.771)" fill="#c93ade"/>
    <path id="Path_3037" data-name="Path 3037" d="M296.381,502.2l1.58,4.154,16.613-4.179-2.332-6.131Z" transform="translate(-239.144 -399.277)" fill="#ffb7b7"/>
    <path id="Path_3038" data-name="Path 3038" d="M554.483,669.62l3.111,8.18h0a5.6,5.6,0,0,1-3.178,7.216l-.168.065-5.094-13.394Z" transform="translate(-496.306 -568.277)" fill="#2f2e41"/>
    <path id="Path_3039" data-name="Path 3039" d="M627.516,568.9a11.486,11.486,0,0,1,4.086-.282,5.1,5.1,0,0,1,3.015,1.192,5.215,5.215,0,0,1,1.309,3.718,11.692,11.692,0,0,1-2.5,7.418A6.691,6.691,0,0,1,632,582.337a9.369,9.369,0,0,1-1.859.905l-14.432,5.75a92.61,92.61,0,0,1-11.567,4.027.9.9,0,0,1-1.2-.424l-.009-.02a30.3,30.3,0,0,1-3.163-5.844.4.4,0,0,1-.074-.356.392.392,0,0,1,.246-.265l10.207-5.924a10.314,10.314,0,0,0,2.078-1.446,5.206,5.206,0,0,0,1.067-1.5c.212-.446.231-1.5.5-1.83s1.17-.349,1.588-.476a14.335,14.335,0,0,0,1.729-.66c2.283-1.032,4.317-2.531,6.505-3.739A16.6,16.6,0,0,1,627.516,568.9Z" transform="translate(-537.071 -486.923)" fill="#2f2e41"/>
    <path id="Path_3040" data-name="Path 3040" d="M645.415,588.373c-1.754,1.331-4.024,2.554-5.762,3.919-.593.466-10.482,6.082-10.622,6.828,1.622.276,11.951-7.023,13.429-7.752a23.85,23.85,0,0,0,4.086-2.775c.331-.26,1.733-1.041.783-1.331C646.794,587.1,645.81,588.107,645.415,588.373Z" transform="translate(-560.757 -501.971)" opacity="0.1"/>
    <ellipse id="Ellipse_14" data-name="Ellipse 14" cx="6.035" cy="6.096" rx="6.035" ry="6.096" transform="translate(110.144 22.867)" fill="#f1f1f1"/>
    <ellipse id="Ellipse_15" data-name="Ellipse 15" cx="4.233" cy="4.276" rx="4.233" ry="4.276" transform="translate(100.777 27.598)" fill="#f1f1f1"/>
    <ellipse id="Ellipse_16" data-name="Ellipse 16" cx="3.394" cy="3.429" rx="3.394" ry="3.429" transform="translate(24.07 26.504)" fill="#f1f1f1"/>
    <ellipse id="Ellipse_17" data-name="Ellipse 17" cx="2.381" cy="2.405" rx="2.381" ry="2.405" transform="translate(30.671 30.856)" fill="#f1f1f1"/>
    <ellipse id="Ellipse_18" data-name="Ellipse 18" cx="2.595" cy="2.621" rx="2.595" ry="2.621" transform="translate(63.386)" fill="#f1f1f1"/>
    <path id="Path_3041" data-name="Path 3041" d="M537.087,439.16l.232-1.808s8.652.638,7.3,2.784-4.635,2.341-4.635,2.341Z" transform="translate(-486.569 -381.319)" fill="#2f2e41" opacity="0.17"/>
    <path id="Path_3042" data-name="Path 3042" d="M531.059,406.23a3.373,3.373,0,0,1,2.457,1.524h0a3.429,3.429,0,0,1-1.1,4.792,3.236,3.236,0,0,1-.447.222L526.654,429.2a2.689,2.689,0,0,1-3.612,1.259,2.742,2.742,0,0,1-1.247-3.648l5.655-16.249a3.431,3.431,0,0,1,.659-3.139,3.354,3.354,0,0,1,2.949-1.192Z" transform="translate(-474.01 -356.252)" fill="#ffb7b7"/>
    <path id="Path_3043" data-name="Path 3043" d="M520.222,438.142s3.047,5.259,7.452,2.63l-4.269,16.5h-3.6l-3.721-.7,1.042-6.819Z" transform="translate(-469.625 -381.955)" fill="#e5e5e5"/>
    <path id="Path_3044" data-name="Path 3044" d="M639.61,431.415l-2.524-3.5s1.213-3.631,5.917-2.3C643,425.611,646,432.379,639.61,431.415Z" transform="translate(-567.257 -371.633)" fill="#e5e5e5"/>
    <path id="Path_3045" data-name="Path 3045" d="M639.61,431.415l-2.524-3.5s1.213-3.631,5.917-2.3C643,425.611,646,432.379,639.61,431.415Z" transform="translate(-567.257 -371.633)" fill="#2f2e41" opacity="0.17"/>
    <path id="Path_3046" data-name="Path 3046" d="M633.514,392.53a3.4,3.4,0,0,1,1.8,4.028l5.655,16.249a2.742,2.742,0,0,1-1.247,3.648,2.69,2.69,0,0,1-3.612-1.259L630.8,398.764a3.241,3.241,0,0,1-.447-.222,3.428,3.428,0,0,1-1.1-4.792h0a3.373,3.373,0,0,1,2.457-1.524A3.308,3.308,0,0,1,633.514,392.53Z" transform="translate(-560.492 -344.979)" fill="#ffb7b7"/>
    <path id="Path_3047" data-name="Path 3047" d="M637.087,429.119s4.165,2.553,5.917-2.3l5.869,15.609-1.744,3.081-.252.021a6.42,6.42,0,0,1-5.52-2.358h0a13,13,0,0,1-2.677-5.75Z" transform="translate(-567.257 -372.838)" fill="#e5e5e5"/>
  </g>
</svg>
