<svg id="ico-user" xmlns="http://www.w3.org/2000/svg" width="39" height="39" viewBox="0 0 39 39">
  <rect id="Container" width="39" height="39" fill="none"/>
  <path id="Path_2753" data-name="Path 2753" d="M66.484,17.106a15.772,15.772,0,0,0-6.046-3.512A7.288,7.288,0,0,0,61.914,2.961a8.4,8.4,0,0,0-11.3-1.389A7.288,7.288,0,0,0,49.135,12.2a7.84,7.84,0,0,0,1.48,1.392A14.593,14.593,0,0,0,40.025,27.417v4.666A3.016,3.016,0,0,0,43.125,35h24.8a3.016,3.016,0,0,0,3.1-2.916V27.417A14.089,14.089,0,0,0,66.484,17.106ZM48.7,7.586a6.833,6.833,0,0,1,13.64,0,6.38,6.38,0,0,1-3.679,5.694,6.735,6.735,0,0,1-.722.3c-.035.013-.072.022-.107.034q-.31.1-.625.18l-.164.036q-.305.065-.614.1l-.145.019a7.389,7.389,0,0,1-1.528,0l-.143-.019q-.31-.038-.62-.1c-.054-.011-.108-.023-.161-.036q-.319-.076-.629-.181c-.035-.012-.071-.021-.106-.033a6.891,6.891,0,0,1-.724-.3A6.354,6.354,0,0,1,48.7,7.586Zm21.08,24.5a1.807,1.807,0,0,1-1.86,1.75h-24.8a1.807,1.807,0,0,1-1.86-1.75V27.417A13.458,13.458,0,0,1,51.33,14.6a1.958,1.958,0,0,1,.543-.076,2.064,2.064,0,0,1,.712.127c.017.006.034.01.051.016.084.031.172.054.257.082.186.058.372.117.558.163.12.03.242.055.364.08.162.033.325.058.489.083.124.017.248.037.377.049.218.022.438.031.658.036.062,0,.124.01.186.01s.124-.009.19-.01c.218,0,.434-.015.653-.036.128-.012.254-.031.381-.05.162-.023.324-.05.485-.082.124-.024.244-.05.365-.08.192-.048.381-.1.569-.166.081-.026.162-.048.242-.077l.058-.019a2.018,2.018,0,0,1,1.249-.054,13.539,13.539,0,0,1,10.07,12.823Z" transform="translate(-35.524 1.5)" fill="#3a3636" stroke="#3a3636" stroke-width="1"/>
</svg>
