<svg id="Component_2" data-name="Component 2" xmlns="http://www.w3.org/2000/svg" width="618.256" height="441.592" viewBox="0 0 618.256 441.592">
  <g id="Group_508" data-name="Group 508">
    <path id="Path_2854" data-name="Path 2854" d="M783.765,253.031c-1.562-11.321-3.52-23.476-11.6-31.648a27.392,27.392,0,0,0-39.254.4c-5.881,6.2-8.478,14.907-8.716,23.4s1.677,16.9,3.8,25.133a79.183,79.183,0,0,0,32.712-6.363,53.079,53.079,0,0,1,7.843-3.043c2.725-.686,4.668,1.039,7.2,2.242l1.392-2.633c1.139,2.1,4.667,1.474,5.946-.54S784.09,255.388,783.765,253.031Z" transform="translate(-297.846 -213.297)" fill="#2f2e41"/>
    <path id="Path_2855" data-name="Path 2855" d="M732.572,303.131l3.254-16.43-24.4-10.44L667.8,255.606a9.63,9.63,0,0,0-7.561-7.887,9.744,9.744,0,0,0-10.154,4.164,9.489,9.489,0,0,0,.311,10.86,9.755,9.755,0,0,0,10.376,3.59l41.536,25.333Z" transform="translate(-293.597 -215.596)" fill="#ffb8b8"/>
    <path id="Path_2856" data-name="Path 2856" d="M720.218,302.872l17.673-17.855.349.105c.22.066,22.178,6.682,36.177,13.4a11.828,11.828,0,0,1,6.578,7.5,12.272,12.272,0,0,1-3.922,12.985,13.5,13.5,0,0,1-14.307,2.251Z" transform="translate(-297.623 -218.117)" fill="#c93ade"/>
    <path id="Path_2857" data-name="Path 2857" d="M447.684,171.615l49.7,13.124,10.036-46.4L461.8,124.387Z" transform="translate(-25.144 -8.359)" fill="#ffb8b8"/>
    <path id="Path_2858" data-name="Path 2858" d="M775.239,367.991l-48.547-11.034-9.3-22.268a16.927,16.927,0,0,1,6.216-17.363l17.737-14.8,9.509-12-1.035-6.362a5.506,5.506,0,0,1,3.717-6l12.672-4.491a5.923,5.923,0,0,1,7.439,3.057l1.343,3.072s5.731,2.665,8.962,4.164a12.868,12.868,0,0,1,7.013,7.853,64.286,64.286,0,0,1-3.728,47.714Z" transform="translate(-297.439 -217.329)" fill="#c93ade"/>
    <path id="Path_2859" data-name="Path 2859" d="M319.7,625.1l-23.473-6.208a76.607,76.607,0,0,1-1.166-37.263C305.3,601.631,332.8,605.4,349.094,621a46.292,46.292,0,0,1,13.835,38.013l5.623,16.1a79.332,79.332,0,0,1-58.946-29.7A75.24,75.24,0,0,1,299.9,629.1C309.721,627.681,319.7,625.1,319.7,625.1Z" transform="translate(-273.646 -238.049)" fill="#f2f2f2"/>
    <path id="Path_2860" data-name="Path 2860" d="M615.172,661.7H385.105a23.148,23.148,0,0,1-23.256-22.984V337.644a23.148,23.148,0,0,1,23.256-22.984H615.172a23.148,23.148,0,0,1,23.256,22.984V638.717A23.148,23.148,0,0,1,615.172,661.7Z" transform="translate(-277.496 -220.109)" fill="#e6e6e6"/>
    <path id="Path_2861" data-name="Path 2861" d="M528.449,644.408H402.364a21.077,21.077,0,0,1-21.175-20.928V355.566a21.076,21.076,0,0,1,21.175-20.928H600.087a21.076,21.076,0,0,1,21.175,20.928V552.68C621.2,603.316,579.684,644.351,528.449,644.408Z" transform="translate(-278.582 -221.452)" fill="#fff"/>
    <path id="Path_2862" data-name="Path 2862" d="M582.488,389.044H424.215a5.1,5.1,0,1,1-.013-10.2H582.488a5.1,5.1,0,1,1,.013,10.2Z" transform="translate(-280.708 -224.422)" fill="#c93ade"/>
    <path id="Path_2863" data-name="Path 2863" d="M582.488,410.654H424.215a5.1,5.1,0,1,1,0-10.2H582.488a5.1,5.1,0,1,1,0,10.2Z" transform="translate(-280.708 -225.874)" fill="#c93ade"/>
    <path id="Path_2864" data-name="Path 2864" d="M492.822,432.265H424.214a5.1,5.1,0,1,1,0-10.2h68.608a5.1,5.1,0,1,1,0,10.2Z" transform="translate(-280.708 -227.327)" fill="#c93ade"/>
    <path id="Path_2865" data-name="Path 2865" d="M582.488,477.526H424.215a5.1,5.1,0,1,1-.013-10.2H582.488a5.1,5.1,0,1,1,.013,10.2Z" transform="translate(-280.708 -230.368)" fill="#e4e4e4"/>
    <path id="Path_2866" data-name="Path 2866" d="M582.488,499.137H424.215a5.1,5.1,0,1,1,0-10.2H582.488a5.1,5.1,0,1,1,0,10.2Z" transform="translate(-280.708 -231.821)" fill="#e4e4e4"/>
    <path id="Path_2867" data-name="Path 2867" d="M492.822,520.748H424.214a5.1,5.1,0,1,1,0-10.2h68.608a5.1,5.1,0,1,1,0,10.2Z" transform="translate(-280.708 -233.273)" fill="#e4e4e4"/>
    <path id="Path_2868" data-name="Path 2868" d="M582.488,566.009H424.215a5.1,5.1,0,1,1-.013-10.2H582.488a5.1,5.1,0,1,1,.013,10.2Z" transform="translate(-280.708 -236.314)" fill="#e4e4e4"/>
    <path id="Path_2869" data-name="Path 2869" d="M582.488,587.62H424.215a5.1,5.1,0,1,1,0-10.2H582.488a5.1,5.1,0,1,1,0,10.2Z" transform="translate(-280.708 -237.767)" fill="#e4e4e4"/>
    <path id="Path_2870" data-name="Path 2870" d="M492.822,609.231H424.214a5.1,5.1,0,1,1,0-10.2h68.608a5.1,5.1,0,1,1,0,10.2Z" transform="translate(-280.708 -239.219)" fill="#e4e4e4"/>
    <ellipse id="Ellipse_9" data-name="Ellipse 9" cx="67.106" cy="66.322" rx="67.106" ry="66.322" transform="translate(282.465 34.085)" fill="#c93ade"/>
    <path id="Path_2871" data-name="Path 2871" d="M638.857,377.746c-35.215,0-64.443-26.919-66.922-61.645-.109,1.535-.185,3.088-.185,4.66,0,36.628,30.044,66.322,67.106,66.322s67.106-29.693,67.106-66.322c0-1.571-.075-3.125-.184-4.668C703.3,350.819,674.08,377.741,638.857,377.746Z" transform="translate(-289.285 -220.205)" fill="#231f20" opacity="0.16"/>
    <path id="Path_2872" data-name="Path 2872" d="M642.35,351.023a8.365,8.365,0,0,1-8.4-8.306V294.659a8.4,8.4,0,0,1,16.808,0v48.059a8.365,8.365,0,0,1-8.4,8.306Z" transform="translate(-292.778 -218.207)" fill="#fff"/>
    <path id="Path_2873" data-name="Path 2873" d="M608.185,320.42a8.365,8.365,0,0,1,8.4-8.306h48.627a8.306,8.306,0,1,1,0,16.611H616.589A8.365,8.365,0,0,1,608.185,320.42Z" transform="translate(-291.331 -219.938)" fill="#fff"/>
    <path id="Path_2874" data-name="Path 2874" d="M744.954,335.476l-14.28-9.006-18.761,18.622L676.5,377.654a9.746,9.746,0,0,0-10.194,4.067,9.488,9.488,0,0,0,.2,10.863,9.754,9.754,0,0,0,10.34,3.688,9.616,9.616,0,0,0,7.178-8.229l39.056-28.93Z" transform="translate(-294.505 -220.903)" fill="#ffb8b8"/>
    <path id="Path_2875" data-name="Path 2875" d="M739.989,347.237l-10.344-22.789.226-.283c.143-.178,14.409-17.953,25.862-28.367a12.008,12.008,0,0,1,9.468-3.305,12.488,12.488,0,0,1,10.791,8.359,13.109,13.109,0,0,1-3.116,13.982Z" transform="translate(-298.153 -218.616)" fill="#c93ade"/>
    <ellipse id="Ellipse_10" data-name="Ellipse 10" cx="22.45" cy="22.187" rx="22.45" ry="22.187" transform="translate(428.734 9.341)" fill="#ffb8b8"/>
    <path id="Path_2876" data-name="Path 2876" d="M440.262,453.82h-9.281l-4.417-35.378h13.7Z" transform="translate(-23.958 -28.12)" fill="#ffb8b8"/>
    <path id="Path_2877" data-name="Path 2877" d="M716.809,685.042h-6.656l-1.188-6.21-3.043,6.21H688.271a3.963,3.963,0,0,1-3.789-2.755,3.9,3.9,0,0,1,1.534-4.394l14.1-9.622v-6.278l14.827.874Z" transform="translate(-295.606 -243.451)" fill="#2f2e41"/>
    <path id="Path_2878" data-name="Path 2878" d="M562.772,445.647l-8.623,3.393-17.343-31.255,12.727-5.007Z" transform="translate(-30.149 -27.74)" fill="#ffb8b8"/>
    <path id="Path_2879" data-name="Path 2879" d="M846.015,673.787l-6.184,2.433-3.428-5.336-.5,6.882-16.4,6.452a4,4,0,0,1-4.551-1.174,3.885,3.885,0,0,1-.219-4.643l9.5-14.092-2.35-5.833,14.1-4.607Z" transform="translate(-302.894 -242.904)" fill="#2f2e41"/>
    <path id="Path_2880" data-name="Path 2880" d="M716.2,633.888h-19.2l5.305-89.138-3.879-60.419.008-.049,14.466-86.608a36.4,36.4,0,0,1,8.868-18.371l.176-.2,48.411,11.817,4.868,10.969c16.62,9.77,21.869,64.86,22.085,67.207l7.036,68.676,17.212,84.17-12.121,6.45-.2-.4-38.265-75.2L746.807,473.49l-15.476,71.376Z" transform="translate(-296.32 -224.44)" fill="#2f2e41"/>
    <path id="Path_2881" data-name="Path 2881" d="M776.552,246.023c-.794-5.157-1.624-10.358-3.49-15.214s-4.875-9.4-9.19-12.155c-6.833-4.355-15.679-3.515-23.339-1.01-5.924,1.937-11.707,4.882-15.885,9.617s-6.524,11.49-4.97,17.68l24.514-5.724-.894.625a19.538,19.538,0,0,1,10.533,13.567,20.037,20.037,0,0,1-4.314,16.785l16.718-5.861c3.44-1.206,7.121-2.6,9.161-5.689C777.761,255.057,777.212,250.3,776.552,246.023Z" transform="translate(-297.566 -213.45)" fill="#2f2e41"/>
    <path id="Path_2960" data-name="Path 2960" d="M273.653,686.306h615.9a1.163,1.163,0,1,0,0-2.326h-615.9a1.163,1.163,0,1,0,0,2.326Z" transform="translate(-272.476 -244.928)" fill="#ccc"/>
  </g>
</svg>
