<svg id="Component_5" data-name="Component 5" xmlns="http://www.w3.org/2000/svg" width="84" height="109.712" viewBox="0 0 84 109.712">
  <rect id="Rectangle_14" data-name="Rectangle 14" width="1.45" height="12.531" transform="matrix(0.543, -0.84, 0.84, 0.543, 6.331, 46.247)" fill="#2f2e41"/>
  <ellipse id="Ellipse_19" data-name="Ellipse 19" cx="4.35" cy="1.09" rx="4.35" ry="1.09" transform="matrix(0.543, -0.84, 0.84, 0.543, 13.982, 55.474)" fill="#2f2e41"/>
  <ellipse id="Ellipse_20" data-name="Ellipse 20" cx="4.35" cy="1.09" rx="4.35" ry="1.09" transform="matrix(0.543, -0.84, 0.84, 0.543, 3.44, 48.698)" fill="#2f2e41"/>
  <ellipse id="Ellipse_21" data-name="Ellipse 21" cx="42" cy="3.188" rx="42" ry="3.188" transform="translate(0 103.337)" fill="#e6e6e6"/>
  <path id="Path_3048" data-name="Path 3048" d="M947.7,468.414a54.3,54.3,0,0,1-2.561,15.079c-.036.113-.073.225-.11.338h-9.557c.01-.1.021-.215.031-.338.637-7.289,4.311-51.654-.082-59.241C935.8,424.867,948.439,445.252,947.7,468.414Z" transform="translate(-871.149 -377.174)" fill="#e6e6e6"/>
  <path id="Path_3049" data-name="Path 3049" d="M965.082,602.418c-.08.113-.163.227-.248.338h-7.169c.054-.1.117-.21.19-.338,1.184-2.127,4.69-8.486,7.944-15.079,3.5-7.085,6.705-14.438,6.435-17.1C972.318,570.839,974.738,589.138,965.082,602.418Z" transform="translate(-889.251 -496.099)" fill="#e6e6e6"/>
  <path id="Path_3050" data-name="Path 3050" d="M637.771,604.93a27.563,27.563,0,0,0,1.3,7.654c.018.057.037.114.056.172h4.851c-.005-.052-.01-.109-.016-.172-.323-3.7-2.188-26.219.041-30.07C643.808,582.827,637.394,593.174,637.771,604.93Z" transform="translate(-628.938 -506.099)" fill="#e6e6e6"/>
  <path id="Path_3051" data-name="Path 3051" d="M623.208,672.95c.041.058.083.115.126.172h3.639l-.1-.172c-.6-1.08-2.381-4.308-4.032-7.654-1.775-3.6-3.4-7.329-3.266-8.68C619.536,656.921,618.307,666.209,623.208,672.95Z" transform="translate(-614.012 -566.465)" fill="#e6e6e6"/>
  <path id="Path_3052" data-name="Path 3052" d="M646.9,399.807s-8.1,7.9-4.7,8.87,7.294-7.258,7.294-7.258Z" transform="translate(-631.874 -357.261)" fill="#ffb8b8"/>
  <path id="Path_3053" data-name="Path 3053" d="M551.654,405.493l-.972,4.516,7.294.323-1.135-4.838Z" transform="translate(-528.527 -336.336)" fill="#ffb8b8"/>
  <path id="Path_3054" data-name="Path 3054" d="M675.2,556.007l-.972,4.516,7.294.323-1.135-4.838Z" transform="translate(-629.055 -458.948)" fill="#ffb8b8"/>
  <path id="Path_3055" data-name="Path 3055" d="M697.719,380.667l.648,2.58s-17.991-3.548-17.018,5.483a62.156,62.156,0,0,0,5.187,17.741s-.324,2.9.324,3.387,0,2.1,0,2.1,6,.806,6.159-.645a10.065,10.065,0,0,0-.162-2.9s.324,0,0-1.613-1.634-14.62-2.606-16.394c0,0,8.6,6.556,13.141,5.749a42.306,42.306,0,0,0,1.945,15c2.593,8.548,2.593,9.515,2.593,9.515s3.08,16.289,2.269,18.225l-.162.806h6s-.486-8.548,0-9.677.486-10.806-2.269-15.644c-1.951-3.426-1.588-13.361-.521-17.288a20.214,20.214,0,0,0,.6-9.212,10.782,10.782,0,0,0-4.291-7.208Z" transform="translate(-664.38 -341.669)" fill="#2f2e41"/>
  <ellipse id="Ellipse_23" data-name="Ellipse 23" cx="5.835" cy="5.806" rx="5.835" ry="5.806" transform="translate(32.285 3.114)" fill="#ffb8b8"/>
  <path id="Path_3056" data-name="Path 3056" d="M786.787,229.962s1.783,5.161,1.621,6.129,5.187-1.935,5.187-1.935-2.107-5.161-1.459-6.612Z" transform="translate(-750.207 -216.929)" fill="#a0616a"/>
  <path id="Path_3057" data-name="Path 3057" d="M767.514,253.643l-5.673,2.258.324,1.935s-.486.645-.324.968-2.107,1.613-1.783,2.1-1.945,2.419-1.783,2.9-5.187,3.387-2.269,9.032a6.9,6.9,0,0,1,1.323,4.271q-.01.122-.026.245c-.324,2.419,12.318-.323,12.318-.323v-2.742s1.135-.484.973-2.58-1.135-1.129,0-2.258,1.135-.968.972-1.935c-.065-.386-.078-1.776-.07-3.306a14.628,14.628,0,0,0-3.009-8.952h0Z" transform="translate(-724.45 -238.191)" fill="#c93ade"/>
  <path id="Path_3058" data-name="Path 3058" d="M691.787,273.265l-10.535,10.967-15.4,12.1,3.4,2.742,28.364-18.87S700.053,269.878,691.787,273.265Z" transform="translate(-651.803 -253.62)" fill="#c93ade"/>
  <path id="Path_3059" data-name="Path 3059" d="M663.978,550.163s-1.135-1.935-1.945-1.29l-5.673,4.516s-10.049,2.9-.324,5.161c0,0,5.349.806,6.483,0a3.776,3.776,0,0,1,3.4-.323c.486.323,6.645-.161,6.645-1.451s-3.4-6.929-3.4-6.929S667.219,552.1,663.978,550.163Z" transform="translate(-640.364 -478.587)" fill="#2f2e41"/>
  <path id="Path_3060" data-name="Path 3060" d="M787.521,700.677s-1.135-1.935-1.945-1.29L779.9,703.9s-10.049,2.9-.324,5.161c0,0,5.349.806,6.483,0a3.776,3.776,0,0,1,3.4-.323c.486.323,6.645-.161,6.645-1.452s-3.4-6.929-3.4-6.929S790.763,702.613,787.521,700.677Z" transform="translate(-740.892 -601.199)" fill="#2f2e41"/>
  <path id="Path_3061" data-name="Path 3061" d="M757.517,176.906s.987-8.629,9.424-6.179c0,0,5.969-1.208,8.078,6.21l2.14,7.778-.98-.507-.433.992-1.563.426-.7-1.315-.294,1.618L762.4,188.1a16.646,16.646,0,0,0,3.625-10.231l-1.075,1.175Z" transform="translate(-726.389 -170.289)" fill="#2f2e41"/>
  <rect id="Rectangle_18" data-name="Rectangle 18" width="12.549" height="1.448" transform="translate(64.209 101.091)" fill="#2f2e41"/>
  <ellipse id="Ellipse_30" data-name="Ellipse 30" cx="1.091" cy="4.343" rx="1.091" ry="4.343" transform="translate(75.667 97.472)" fill="#2f2e41"/>
  <ellipse id="Ellipse_31" data-name="Ellipse 31" cx="1.091" cy="4.343" rx="1.091" ry="4.343" transform="translate(63.117 97.472)" fill="#2f2e41"/>
</svg>
