<svg id="Component_1" data-name="Component 1" xmlns="http://www.w3.org/2000/svg" width="354.666" height="270.476" viewBox="0 0 354.666 270.476">
  <g id="Group_507" data-name="Group 507">
    <path id="Path_2816" data-name="Path 2816" d="M307.693,639.324l3.484,1.044,5.684-12.944-5.143-1.54Z" transform="translate(-184.801 -375.907)" fill="#ffb8b8"/>
    <path id="Path_2817" data-name="Path 2817" d="M460.286,767.416l6.862,2.055h0a4.565,4.565,0,0,1,3.063,5.683l-.042.142-11.236-3.365Z" transform="translate(-337.943 -505.403)" fill="#2f2e41"/>
    <path id="Path_2818" data-name="Path 2818" d="M383.34,644.076l3.415-1.252-3.2-13.768-5.04,1.848Z" transform="translate(-227.334 -377.811)" fill="#ffb8b8"/>
    <path id="Path_2819" data-name="Path 2819" d="M543.4,771.937l6.726-2.466h0a4.565,4.565,0,0,1,5.857,2.715l.051.139-11.012,4.038Z" transform="translate(-388.672 -506.469)" fill="#2f2e41"/>
    <path id="Path_2820" data-name="Path 2820" d="M313.4,600.868l-5.934,19.582,7.12,2.077,6.824-18.1Z" transform="translate(-184.663 -360.882)" fill="#2f2e41"/>
    <path id="Path_2821" data-name="Path 2821" d="M369.121,608.442l5.341,18.4,7.417-3.56-5.34-17.208Z" transform="translate(-221.695 -364.005)" fill="#2f2e41"/>
    <path id="Path_2822" data-name="Path 2822" d="M492.609,626.726a81.464,81.464,0,0,1-14.162-1.306l-.119-.024V620.87l-2.712-.3,2.117-7.56c-.986-11.647.415-26.4.869-30.641.1-1,.172-1.554.172-1.554l2.38-20.229,3.982-3.676,1.809,1.177,3.356,3.356c3.9,9.6,7,18.636,7.015,19.217L510.4,622.576l-.088.062C505.767,625.845,498.843,626.726,492.609,626.726Z" transform="translate(-347.962 -378.972)" fill="#3f3d56"/>
    <path id="Path_2823" data-name="Path 2823" d="M336.333,477.181l-.915,5.709,6.192,2.554Z" transform="translate(-201.452 -286.596)" opacity="0.2"/>
    <path id="Path_2824" data-name="Path 2824" d="M500.93,533.45H486.614a1.112,1.112,0,0,1-1.111-1.111v-6.171a8.269,8.269,0,1,1,16.537,0v6.171A1.112,1.112,0,0,1,500.93,533.45Z" transform="translate(-353.9 -355.543)" fill="#2f2e41"/>
    <circle id="Ellipse_3" data-name="Ellipse 3" cx="6.062" cy="6.062" r="6.062" transform="translate(135.39 165.411)" fill="#ffb8b8"/>
    <path id="Path_2825" data-name="Path 2825" d="M510.279,530.126h-8.754l-.09-1.257-.449,1.257h-1.348l-.178-2.491-.89,2.491h-2.608V530a6.548,6.548,0,0,1,6.541-6.541h1.234A6.548,6.548,0,0,1,510.279,530Z" transform="translate(-360.182 -358.884)" fill="#2f2e41"/>
    <path id="Path_2826" data-name="Path 2826" d="M499.775,542.06a1.141,1.141,0,0,1-.2-.017l-6.41-1.131V530.318h7.056l-.175.2c-2.431,2.835-.6,7.431.708,9.919a1.094,1.094,0,0,1-.087,1.162,1.106,1.106,0,0,1-.9.458Z" transform="translate(-358.504 -363.001)" fill="#2f2e41"/>
    <path id="Path_2827" data-name="Path 2827" d="M531.009,612.374H527.5a.452.452,0,0,1-.451-.409l-.7-7.209h5.823l-.7,7.209A.452.452,0,0,1,531.009,612.374Z" transform="translate(-378.427 -407.709)" fill="#c93ade"/>
    <path id="Path_2828" data-name="Path 2828" d="M531.486,604.027h-5.8a.454.454,0,0,1-.453-.453v-1.088a.454.454,0,0,1,.453-.453h5.8a.454.454,0,0,1,.453.453v1.088A.454.454,0,0,1,531.486,604.027Z" transform="translate(-377.759 -406.072)" fill="#2f2e41"/>
    <path id="Path_2829" data-name="Path 2829" d="M483.892,616.064h0a11.136,11.136,0,0,0,13.367,2.7l1.319-.653Z" transform="translate(-352.932 -414.501)" opacity="0.2"/>
    <path id="Path_2830" data-name="Path 2830" d="M518.16,610.18a2.782,2.782,0,0,0-4.264.129l-6.121-1.718-1.951,3.465,8.678,2.305a2.8,2.8,0,0,0,3.658-4.181Z" transform="translate(-366.104 -410.012)" fill="#ffb8b8"/>
    <path id="Path_2831" data-name="Path 2831" d="M481.306,588.834c-2.91,0-6.848-1.706-11.522-5.011a2.289,2.289,0,0,1-.964-1.569c-.345-2.184,1.786-5.137,1.995-5.42l2.24-6.151c.026-.1.748-2.761,2.56-3.708a2.971,2.971,0,0,1,2.482-.106c3.452,1.257.756,10.963.386,12.236l4.573,2.152,2.9,1.851,3.977.416-1.08,5-6.04.136a6.169,6.169,0,0,1-1.511.176Z" transform="translate(-343.858 -384.821)" fill="#3f3d56"/>
    <path id="Path_2832" data-name="Path 2832" d="M925.254,448.872a39.373,39.373,0,1,0-75.573,15.5c-.039-.043-.078-.084-.117-.127a39.4,39.4,0,0,0,7.171,11.1l.027.029c.242.264.485.526.734.783a39.252,39.252,0,0,0,27.77,12.083l-1.33,72.263h4.11l-.832-47.694,5.946-3.13-.907-1.723-5.077,2.673-.391-22.392a39.372,39.372,0,0,0,38.468-39.361Z" transform="translate(-570.72 -290.447)" fill="#e6e6e6"/>
    <path id="Path_2833" data-name="Path 2833" d="M612.315,390.659a46.141,46.141,0,1,0-88.567,18.165c-.045-.05-.092-.1-.137-.149a46.186,46.186,0,0,0,8.4,13l.032.034c.283.309.569.616.86.917a46,46,0,0,0,32.544,14.161l-1.559,84.686h4.817l-.975-55.893,6.968-3.668-1.063-2.019-5.95,3.132-.458-26.241A46.141,46.141,0,0,0,612.315,390.659Z" transform="translate(-374.638 -251.424)" fill="#e6e6e6"/>
    <path id="Path_2834" data-name="Path 2834" d="M261.338,335.895a52.508,52.508,0,1,0-100.787,20.671c-.051-.057-.1-.113-.156-.17a52.553,52.553,0,0,0,9.563,14.8l.036.039c.323.352.647.7.979,1.044a52.348,52.348,0,0,0,37.034,16.114l-1.774,96.371h5.482l-1.109-63.606,7.929-4.175-1.21-2.3-6.77,3.564-.521-29.862A52.507,52.507,0,0,0,261.338,335.895Z" transform="translate(-156.193 -214.71)" fill="#e6e6e6"/>
    <circle id="Ellipse_4" data-name="Ellipse 4" cx="34.339" cy="34.339" r="34.339" transform="translate(267.88)" fill="#ff6584"/>
    <circle id="Ellipse_5" data-name="Ellipse 5" cx="68.821" cy="68.821" r="68.821" transform="translate(29.255 6.112)" fill="#c93ade"/>
    <path id="Path_2835" data-name="Path 2835" d="M248.1,183.922A68.826,68.826,0,0,0,362.78,256.76,68.827,68.827,0,1,1,248.1,183.922Z" transform="translate(-200.843 -154.955)" opacity="0.2"/>
    <path id="Path_2836" data-name="Path 2836" d="M240.63,187.616h.189l3.4,195.119h-7.185Z" transform="translate(-142.365 -112.682)" fill="#3f3d56"/>
    <rect id="Rectangle_1" data-name="Rectangle 1" width="12.857" height="3.403" transform="translate(97.834 184.192) rotate(-27.766)" fill="#3f3d56"/>
    <path id="Path_2837" data-name="Path 2837" d="M665.115,775.987s.248-5.2,5.338-4.6" transform="translate(-461.775 -507.759)" fill="#3f3d56"/>
    <circle id="Ellipse_6" data-name="Ellipse 6" cx="2.548" cy="2.548" r="2.548" transform="translate(199.354 258.181)" fill="#c93ade"/>
    <rect id="Rectangle_2" data-name="Rectangle 2" width="0.719" height="5.034" transform="translate(201.487 265.019)" fill="#3f3d56"/>
    <path id="Path_2838" data-name="Path 2838" d="M223.083,774.186s.248-5.2,5.339-4.6" transform="translate(-196.29 -506.678)" fill="#3f3d56"/>
    <circle id="Ellipse_7" data-name="Ellipse 7" cx="2.548" cy="2.548" r="2.548" transform="translate(22.807 257.462)" fill="#c93ade"/>
    <rect id="Rectangle_3" data-name="Rectangle 3" width="0.719" height="5.034" transform="translate(24.94 264.3)" fill="#3f3d56"/>
    <path id="Path_2839" data-name="Path 2839" d="M327.514,775.087s.248-5.2,5.339-4.6" transform="translate(-259.012 -507.219)" fill="#3f3d56"/>
    <circle id="Ellipse_8" data-name="Ellipse 8" cx="2.548" cy="2.548" r="2.548" transform="translate(64.517 257.822)" fill="#c93ade"/>
    <rect id="Rectangle_4" data-name="Rectangle 4" width="0.719" height="5.034" transform="translate(66.65 264.659)" fill="#3f3d56"/>
    <path id="Path_2840" data-name="Path 2840" d="M593.76,188.463l5.11-4.087c-3.97-.438-5.6,1.727-6.269,3.441-3.1-1.288-6.478.4-6.478.4l10.225,3.712A7.737,7.737,0,0,0,593.76,188.463Z" transform="translate(-414.333 -155.193)" fill="#3f3d56"/>
    <path id="Path_2841" data-name="Path 2841" d="M788.344,292.7l5.11-4.087c-3.97-.438-5.6,1.727-6.269,3.441-3.1-1.288-6.478.4-6.478.4l10.225,3.712A7.737,7.737,0,0,0,788.344,292.7Z" transform="translate(-531.2 -217.801)" fill="#3f3d56"/>
    <path id="Path_2842" data-name="Path 2842" d="M578.472,381.657l5.11-4.087c-3.97-.438-5.6,1.727-6.269,3.441-3.1-1.288-6.478.4-6.478.4l10.225,3.712A7.738,7.738,0,0,0,578.472,381.657Z" transform="translate(-405.151 -271.226)" fill="#3f3d56"/>
    <path id="Path_2843" data-name="Path 2843" d="M839.655,780.715s.248-5.2,5.338-4.6" transform="translate(-566.604 -510.599)" fill="#3f3d56"/>
    <path id="Path_2844" data-name="Path 2844" d="M719.919,780.715s.248-5.2,5.339-4.6" transform="translate(-494.691 -510.599)" fill="#3f3d56"/>
    <path id="Path_2845" data-name="Path 2845" d="M283.289,780.715s.248-5.2,5.339-4.6" transform="translate(-232.45 -510.599)" fill="#3f3d56"/>
    <path id="Path_2846" data-name="Path 2846" d="M893.671,780.715s.248-5.2,5.339-4.6" transform="translate(-599.046 -510.599)" fill="#3f3d56"/>
    <path id="Path_2847" data-name="Path 2847" d="M868.464,780.715s.248-5.2,5.339-4.6" transform="translate(-583.907 -510.599)" fill="#3f3d56"/>
    <path id="Path_2848" data-name="Path 2848" d="M808.437,780.715s-.248-5.2-5.338-4.6" transform="translate(-544.648 -510.599)" fill="#3f3d56"/>
    <path id="Path_2849" data-name="Path 2849" d="M601.375,780.715s-.248-5.2-5.339-4.6" transform="translate(-420.287 -510.599)" fill="#3f3d56"/>
    <path id="Path_2850" data-name="Path 2850" d="M429.424,780.715s-.248-5.2-5.338-4.6" transform="translate(-317.013 -510.599)" fill="#3f3d56"/>
    <path id="Path_2851" data-name="Path 2851" d="M246.669,780.715s-.248-5.2-5.339-4.6" transform="translate(-207.25 -510.599)" fill="#3f3d56"/>
    <path id="Path_2852" data-name="Path 2852" d="M939.876,780.715s-.248-5.2-5.338-4.6" transform="translate(-623.591 -510.599)" fill="#3f3d56"/>
    <path id="Path_2853" data-name="Path 2853" d="M862.453,781.616s-.248-5.2-5.339-4.6" transform="translate(-577.091 -511.14)" fill="#3f3d56"/>
    <rect id="Rectangle_5" data-name="Rectangle 5" width="354.666" height="0.799" transform="translate(0 269.436)" fill="#3f3d56"/>
  </g>
</svg>
