<svg xmlns="http://www.w3.org/2000/svg" viewBox="0 0 1440 320"><path fill="#d43abc" fill-opacity="0.7" d="M0,224L26.7,213.3C53.3,203,107,181,160,192C213.3,203,267,245,320,256C373.3,267,427,245,480,229.3C533.3,213,587,203,640,176C693.3,149,747,107,800,80C853.3,53,907,43,960,58.7C1013.3,75,1067,117,1120,133.3C1173.3,149,1227,139,1280,160C1333.3,181,1387,235,1413,261.3L1440,288L1440,320L1413.3,320C1386.7,320,1333,320,1280,320C1226.7,320,1173,320,1120,320C1066.7,320,1013,320,960,320C906.7,320,853,320,800,320C746.7,320,693,320,640,320C586.7,320,533,320,480,320C426.7,320,373,320,320,320C266.7,320,213,320,160,320C106.7,320,53,320,27,320L0,320Z"></path></svg>